<svg 
width="10" 
height="16" 
viewBox="0 0 10 16" 
fill="none" 
xmlns="http://www.w3.org/2000/svg">
<path d="M8.5 0H1.5C0.672848 0 0 0.672848 0 1.5V14.5C0 15.3272 0.672848 16 1.5 16H8.5C9.32715 16 10 15.3272 10 14.5V1.5C10 0.672848 9.32715 0 8.5 0ZM1.5 1H8.5C8.77588 1 9 1.22412 9 1.5V12H1V1.5C1 1.22412 1.22412 1 1.5 1ZM8.5 15H1.5C1.22412 15 1 14.7759 1 14.5V13H9V14.5C9 14.7759 8.77588 15 8.5 15Z" fill="#757575"/>
<path d="M2.35355 13.7389C2.54882 13.9212 2.54882 14.2167 2.35355 14.399C2.15828 14.5812 1.84172 14.5812 1.64645 14.399C1.45118 14.2167 1.45118 13.9212 1.64645 13.7389C1.84172 13.5566 2.15828 13.5566 2.35355 13.7389Z" fill="#757575"/>
</svg>

<svg 
xmlns="http://www.w3.org/2000/svg" 
width="16" 
height="12" 
fill="none"><g 
clip-path="url(#a)">
<path fill="#fff" d="M-1042-34H558v2930h-1600z"/>
<path fill="#fff" d="M-1042-34H558v80h-1600z"/>
<path fill="#757575" d="M14.5-.0116h-13C.673-.0116 0 .661 0 1.4879v8.9969c0 .8269.6729 1.4995 1.5 1.4995h13c.8271 0 1.5-.6726 1.5-1.4995V1.4879c0-.8269-.6729-1.4995-1.5-1.4995Zm0 .9997c.0679 0 .1325.014.1916.0387L8 6.8243 1.3083 1.0268A.498.498 0 0 1 1.5.988h13Zm0 9.9965h-13c-.2759 0-.5-.224-.5-.4998V2.0829l6.6724 5.7807A.4995.4995 0 0 0 8 7.9856a.4994.4994 0 0 0 .3276-.122L15 2.083v8.4019a.5002.5002 0 0 1-.5.4998Z"/>
<path fill="#2196F3" d="M14.5 0h-13C.673 0 0 .6726 0 1.4995v8.9969c0 .8269.6729 1.4995 1.5 1.4995h13c.8271 0 1.5-.6726 1.5-1.4995V1.4995C16 .6726 15.3271 0 14.5 0Zm0 .9997c.0679 0 .1325.014.1916.0387L8 6.836 1.3083 1.0384A.498.498 0 0 1 1.5.9997h13Zm0 9.9965h-13c-.2759 0-.5-.224-.5-.4998v-8.402l6.6724 5.7808A.4995.4995 0 0 0 8 7.9972a.4994.4994 0 0 0 .3276-.122L15 2.0945v8.4019a.5002.5002 0 0 1-.5.4998Z"/></g><defs><clipPath id="a">
<path fill="#fff" d="M-1042-34H558v2930h-1600z"/></clipPath></defs></svg>